<?xml version="1.0" encoding="UTF-8"?>
<svg xmlns="http://www.w3.org/2000/svg" viewBox="0 0 824.49805 270.78973">
    <g>
        <path
            d="m119.74306,269.4287c-27.71049,0-54.3866-8.43836-77.17017-24.38958-16.19621-11.35095-29.37094-25.69618-39.22477-42.68177,16.76784,8.13893,35.33223,12.43978,54.0055,12.43978h0c40.42247,0,78.36788-19.73488,101.50532-52.80781,34.97836-49.94965,28.22769-117.91929-15.24349-159.94776,19.32656,3.42979,37.31933,10.91543,53.51555,22.26639,60.86508,42.62733,75.70026,126.79317,33.10016,187.65825-25.179,35.98553-66.47252,57.46252-110.48811,57.46252q.02723,0,0,0Z"
            style="fill:#fff000;" />
        <path
            d="m147.75299,4.21918c17.50279,3.70199,33.80788,10.80654,48.64307,21.17757,60.239,42.1918,74.93809,125.51381,32.74628,185.75282-24.93398,35.63165-65.81922,56.89089-109.37205,56.89089-27.41106,0-53.84218-8.3567-76.38077-24.14461-14.83518-10.37101-27.08441-23.30076-36.55716-38.46259,15.86956,7.0229,33.15459,10.69766,50.54851,10.69766,40.858,0,79.23893-19.95265,102.62135-53.37944,34.5156-49.24192,28.85375-115.82331-12.24923-158.5323m-8.30227-4.21918c45.3766,40.80356,54.22327,109.9709,18.34662,161.22714-23.81795,34.02565-61.8178,52.20896-100.41649,52.20896-19.54433,0-39.25199-4.65471-57.38085-14.318,9.74495,18.15608,23.76351,34.40673,41.81071,47.03705,23.76351,16.63174,50.98403,24.63458,77.95956,24.63458,42.89954,0,85.11855-20.22485,111.60413-58.06137,43.11731-61.57282,28.14603-146.44639-33.42679-189.56369C179.90042,10.53434,159.83889,2.93982,139.45072,0h0Z"
            style="fill:#754c24;" />
    </g>
    <g>
        <polygon
            points="203.55505 184.60955 181.58807 194.3545 191.33302 172.38755 175.27291 154.50367 199.17255 156.98072 211.23124 136.18426 216.26703 159.67557 239.75833 164.71136 218.96186 176.77005 221.43893 200.66966 203.55505 184.60955"
            style="fill:#8cc63f;" />
        <path
            d="m210.63238,139.91347l4.1103,19.19047.38109,1.71489,1.71489.38109,19.19047,4.1103-16.9856,9.82661-1.52434.87106.19054,1.74211,2.01431,19.51711-14.5902-13.12029-1.30659-1.17048-1.606.70774-17.93833,7.94839,7.94839-17.93831.70774-1.606-1.17048-1.30659-13.12029-14.5902,19.51711,2.01431,1.74211.19054.87106-1.52434,9.85384-16.95839m1.17048-7.45843l-13.36528,23.083-26.54001-2.74928,17.82945,19.84376-10.80655,24.38958,24.38958-10.80655,19.84376,17.82945-2.74928-26.54001,23.08301-13.36528-26.10447-5.58021-5.58021-26.10446h0Z"
            style="fill:#009245;" />
    </g>
    <text transform="translate(311.50201 121.55505)"
        style="fill:#8f642d; font-family:AreaNormal-Regular, &apos;Area Normal&apos;; font-size:120px;">
        <tspan x="0" y="0">D</tspan>
        <tspan x="96.59912" y="0" style="letter-spacing:-.008em;">OW</tspan>
        <tspan x="337.43799" y="0" style="letter-spacing:0em;">O</tspan>
        <tspan x="443.87646" y="0" style="letter-spacing:-.03698em;">L</tspan>
    </text>
    <text transform="translate(312.84473 228.8348) scale(1.01205 1)"
        style="fill:gray; font-family:AreaNormal-Regular, &apos;Area Normal&apos;; font-size:80px;">
        <tspan x="0" y="0">D</tspan>
        <tspan x="64.3995" y="0" style="letter-spacing:-.004em;">E</tspan>
        <tspan x="116.71894" y="0">VE</tspan>
        <tspan x="228.47761" y="0" style="letter-spacing:-.05199em;">L</tspan>
        <tspan x="271.67838" y="0">OPER</tspan>
    </text>
</svg>
